<svg xmlns="http://www.w3.org/2000/svg" width="693.731" height="693.731" viewBox="0 0 183.55 183.55"><defs><filter id="a" x="-.1" width="1.199" y="-.1" height="1.199" color-interpolation-filters="sRGB"><feGaussianBlur stdDeviation="7.372"/></filter></defs><g transform="translate(-12.768 -9.58)"><circle cx="105.077" cy="109.373" r="88.824" transform="matrix(.86159 0 0 .86159 14.01 7.12)" fill="#4c4e4c" filter="url(#a)"/><circle r="76.53" cy="101.355" cx="104.543" fill="#fffff7" stroke="#e9e8ea" stroke-width="4" stroke-opacity=".94"/><g stroke-width="1.161"><path d="M157.802 59.49a67.412 67.412 0 0113.827 40.902h-67.412z" fill="#339e00"/><path d="M124.773 36.19a67.412 67.412 0 0134.223 24.913l-54.779 39.289z" fill="#7e9e00"/><path d="M75.558 39.376a67.412 67.412 0 0150.03-2.918l-21.37 63.934z" fill="#ffcd28"/><path d="M46.361 65.794a67.412 67.412 0 0136.55-29.358l21.306 63.956z" fill="#ff9928"/><path d="M36.806 100.392a67.412 67.412 0 0112.86-39.603l54.551 39.603z" fill="#ff4128"/><path d="M78.39 100.53a23.201 24.524 90 0112.263-20.092 23.201 24.524 90 0124.523 0 23.201 24.524 90 0112.262 20.093" fill="#fff" stroke="#fff" stroke-width="14.64961477" stroke-opacity=".299"/></g><path d="M108.625 105.988c-4.864 2.905-11.162 1.316-14.066-3.549-2.905-4.864-1.316-11.162 3.548-14.066 4.865-2.905 52.825-26.19 55.73-21.326 2.904 4.864-40.347 36.037-45.212 38.941z" fill="#00006c"/><circle cx="103.403" cy="97.219" r="6.676" fill="#3635c0"/><circle cx="76.797" cy="125.909" r="8.141" fill="#705afc"/><circle r="8.141" cy="125.909" cx="104.152" fill="#705afc"/><circle cx="131.507" cy="125.909" r="8.141" fill="#705afc"/></g></svg>