<svg xmlns="http://www.w3.org/2000/svg" viewBox="0 0 630 630"><path fill="#f0db4f" d="M47.273 146.668h458.182V604.85H47.273z"/><path d="M167.745 529.558l35.064-21.22c6.765 11.994 12.918 22.141 27.678 22.141 14.148 0 23.068-5.534 23.068-27.062v-146.4h43.058v147.01c0 44.596-26.141 64.895-64.28 64.895-34.445 0-54.438-17.84-64.588-39.367M320 524.945l35.06-20.3c9.228 15.072 21.223 26.144 42.444 26.144 17.84 0 29.217-8.92 29.217-21.223 0-14.762-11.686-19.991-31.371-28.6l-10.762-4.617c-31.065-13.223-51.673-29.83-51.673-64.893 0-32.293 24.605-56.9 63.051-56.9 27.373 0 47.057 9.536 61.203 34.449l-33.524 21.528c-7.382-13.224-15.377-18.452-27.679-18.452-12.61 0-20.607 7.996-20.607 18.452 0 12.918 7.997 18.147 26.45 26.144l10.763 4.613c36.6 15.686 57.207 31.678 57.207 67.661 0 38.755-30.448 59.975-71.353 59.975-39.982 0-65.818-19.068-78.426-43.981" fill="#323330"/><g transform="matrix(3.47456 0 0 3.47456 813.086 391.235)" stroke-width="1.088"><path d="M-139.473-99.875v54.05h25.702v6.527h14.955v-6.527h32.67v-54.05z" fill="#fff" fill-rule="evenodd"/><path d="M-73.482-106.417h-57.483c-7.922 0-14.403 6.481-14.403 14.403v37.767c0 7.922 6.481 14.403 14.403 14.403h13.317v19.387l24.005-19.387h20.16c7.92 0 14.402-6.481 14.402-14.403v-37.767c.002-7.922-6.48-14.403-14.401-14.403zm5.401 52.17c0 2.928-2.474 5.401-5.401 5.401h-23.34l-2.476 1.999-9.346 7.549v-9.548H-130.963c-2.928 0-5.401-2.473-5.401-5.4v-37.768c0-2.927 2.473-5.401 5.4-5.401h57.484c2.927 0 5.4 2.474 5.4 5.401v37.767z"/><circle r="5.245" cy="-73.128" cx="-120.69"/><circle r="5.245" cy="-73.128" cx="-102.224"/><circle r="5.245" cy="-73.128" cx="-83.759"/></g></svg>