<svg height="256" width="256" xmlns="http://www.w3.org/2000/svg"><linearGradient id="a" gradientTransform="scale(1.25056 .79964)" gradientUnits="userSpaceOnUse" x1="48.858" x2="127.143" y1="40.018" y2="40.018"><stop offset="0" stop-color="#2a3b8f"/><stop offset="1" stop-color="#29abe2"/></linearGradient><linearGradient id="b" gradientTransform="scale(1.2532 .79796)" gradientUnits="userSpaceOnUse" x1="126.875" x2="48.675" y1="124.819" y2="124.819"><stop offset="0" stop-color="#b4d44e"/><stop offset="1" stop-color="#e7f716"/></linearGradient><g fill="none" fill-rule="evenodd"><path d="M256 127.65l-27.805 46.822-38.992-47.46 38.992-46.183z" fill="#166da5"/><path d="M225.159 182.462l-42.348-50.657-25.408 42.507L196.873 232z" fill="#8fdb69"/><path d="M224.68 72.52l-41.869 50.816-25.408-42.507 39.47-57.049z" fill="#166da5"/><path d="M61.1 31.4H141L123.4.7H78.7zm53.7 31.9H159l-15.9-26.8H98.8" fill="url(#a)" opacity=".95" transform="matrix(1.598 0 0 1.598 -.64 22.342)"/><path d="M141.3 100.3H61l17.6 30.5h45zm-26.5-31.9H159l-15.9 26.8H98.8" fill="url(#b)" opacity=".95" transform="matrix(1.598 0 0 1.598 -.64 22.342)"/><path d="M124.964 231.36L64.879 127.49l60.884-103.87H59.925L0 127.49l59.925 103.87z" fill="#010101"/></g></svg>